<?xml version="1.0" standalone="no"?><!DOCTYPE svg PUBLIC "-//W3C//DTD SVG 1.1//EN" "http://www.w3.org/Graphics/SVG/1.1/DTD/svg11.dtd"><svg class="icon" width="48px" height="48.00px" viewBox="0 0 1024 1024" version="1.1" xmlns="http://www.w3.org/2000/svg"><path fill="#333333" d="M562.08548027 232.04487648c33.29196026 7.56635438 49.93794119 46.91139844 42.37158684 80.20336037-7.56635438 33.29196026-39.34504407 62.04410887-72.63700432 52.96448231-33.29196026-7.56635438-45.39812791-46.91139844-37.83177353-80.20335871 7.56635438-31.7786897 34.80523078-60.53083665 68.09719101-52.96448397z m-142.24746754 246.66316326s99.87588242-87.76971474 139.22092648-71.12373376c25.72560588 7.56635438 12.10616767 125.60148828 7.56635438 142.24746756-1.51327054 13.6194382-24.21233532 195.21194985-18.15925151 202.77830587 7.56635438 30.26541917 16.64598095 6.05308384 45.3981279-16.64598095 0 0 66.58392048-45.39812791-4.5398116 48.42467069-59.0175661 62.04410887-115.00859116 54.47775451-124.08821774 7.56635437-7.56635438-36.31850299 21.18579257-251.20297489 28.75214862-299.62764557 3.02654107-16.64598095-18.15925151 0-18.1592515 0s-54.47775451 33.29196026-68.09719271 10.59289714c-3.02654107-6.05308384 1.51327054-15.13270875 12.10616768-24.21233535z m0 0"  /><path fill="#333333" d="M513.66081128 972.03436462c-243.63662052 0-441.87511313-198.23849261-441.87511311-441.87511311s198.23849261-441.87511313 441.87511311-441.87511313 441.87511313 198.23849261 441.87511312 441.87511313-198.23849261 441.87511313-441.87511312 441.87511311z m0-808.08667917c-201.26503367 0-366.21156604 163.43326181-366.21156604 366.21156606S310.88250539 896.37081754 513.66081128 896.37081754s366.21156604-163.43326181 366.21156605-366.21156603-163.43326181-366.21156604-366.21156605-366.21156606z"  /></svg>