<?xml version="1.0" standalone="no"?><!DOCTYPE svg PUBLIC "-//W3C//DTD SVG 1.1//EN" "http://www.w3.org/Graphics/SVG/1.1/DTD/svg11.dtd"><svg class="icon" width="48px" height="48.00px" viewBox="0 0 1024 1024" version="1.1" xmlns="http://www.w3.org/2000/svg"><path fill="#333333" d="M810.44262825 891.32658195H224.50412165c-98.46349478 0-177.55712309-79.09362831-177.55712307-177.55712309V336.05703215c0-98.46349478 79.09362831-177.55712309 177.55712307-177.55712309h585.9385066c98.46349478 0 177.55712309 79.09362831 177.55712307 177.55712309v376.0982697c0 98.46349478-79.09362831 179.17127831-177.55712307 179.1712801zM224.50412165 239.20769263c-53.26713727 0-96.84933953 43.58220226-96.84933952 96.84933952v376.0982697c0 53.26713727 43.58220226 96.84933953 96.84933952 96.84933954h585.9385066c53.26713727 0 96.84933953-43.58220226 96.84933953-96.84933954V336.05703215c0-53.26713727-43.58220226-96.84933953-96.84933953-96.84933952H224.50412165z"  /><path fill="#333333" d="M343.95163996 210.1528911h-12.91324374c-22.59817874 0-40.35389178-17.75571301-40.35389177-40.35389177v-85.55025107c0-22.59817874 17.75571301-40.35389178 40.35389177-40.35389176h12.91324374c22.59817874 0 40.35389178 17.75571301 40.35389176 40.35389176v85.55025107c1.61415524 22.59817874-17.75571301 40.35389178-40.35389176 40.35389177zM705.52250892 210.1528911h-12.91324554c-22.59817874 0-40.35389178-17.75571301-40.35388997-40.35389177v-85.55025107c0-22.59817874 17.75571301-40.35389178 40.35388997-40.35389176h12.91324554c22.59817874 0 40.35389178 17.75571301 40.35389174 40.35389176v85.55025107c0 22.59817874-17.75571301 40.35389178-40.35389174 40.35389177zM418.20280075 692.78543357h-6.45662274c-6.45662276-1.61415524-12.91324551-6.45662276-16.14155603-11.29908848-3.22831047-6.45662276-4.84246752-12.91324551-3.22831049-19.36986824l20.98402354-92.00687204c1.61415524-6.45662276 0-11.29909028-4.84246752-16.1415578l-71.02285032-61.33791529c-11.29909028-9.68493324-11.29909028-25.82649101-3.22831048-35.51142424 4.84246752-4.84246752 11.29909028-8.07077801 17.75571304-9.68493324l92.00687202-8.07077978c6.45662276 0 11.29909028-4.84246752 12.9132455-9.68493325l35.51142428-87.1644063c3.22831047-6.45662276 8.07077801-11.29909028 14.52740074-14.52740077 6.45662276-3.22831047 12.91324551-3.22831047 19.36986827 0 6.45662276 3.22831047 11.29909028 8.07077801 12.9132455 14.52740077l35.51142429 87.1644063c1.61415524 4.84246752 6.45662276 9.68493324 12.9132455 9.68493325l92.00687381 8.07077978c6.45662276 0 12.91324551 3.22831047 17.75571125 9.68493324 4.84246752 4.84246752 6.45662276 11.29909028 6.45662276 17.75571302 0 6.45662276-3.22831047 12.91324551-8.07077801 17.75571122l-69.40869328 61.33791529c-4.84246752 3.22831047-6.45662276 9.68493324-4.84246751 16.1415578l20.98402351 92.00687204c3.22831047 14.52740075-4.84246752 27.44064627-19.36986829 30.66895672-6.45662276 1.61415524-12.91324551 0-19.36986823-3.22831048l-79.09362654-48.42466977c-4.84246752-3.22831047-11.29909028-3.22831047-16.14155599 0l-79.09362832 48.42466977c-3.22831047 1.61415524-6.45662276 3.22831047-11.29909026 3.22831048zM518.28045255 721.84023686zM518.28045255 497.47259925zM518.28045255 468.41779774z"  /><path fill="#333333" d="M518.28045255 340.89949966z"  /><path fill="#333333" d="M518.28045255 340.89949966z"  /></svg>