<?xml version="1.0" standalone="no"?><!DOCTYPE svg PUBLIC "-//W3C//DTD SVG 1.1//EN" "http://www.w3.org/Graphics/SVG/1.1/DTD/svg11.dtd"><svg class="icon" width="48px" height="48.00px" viewBox="0 0 1024 1024" version="1.1" xmlns="http://www.w3.org/2000/svg"><path fill="#333333" d="M646.09543623 547.51142428c8.07077801 0 16.141556-3.22831047 22.59817875-9.68493327 6.45662276-6.45662276 9.68493324-14.52740075 9.68493325-22.59818054 0-8.07077801-3.22831047-16.141556-9.68493325-22.59817875-6.45662276-6.45662276-14.52740075-9.68493324-22.59817875-9.68493322h-48.42467155l72.63700555-75.86531604c9.68493324-8.07077801 14.52740075-19.36986828 11.29909025-32.28311379-3.22831047-12.91324551-12.91324551-20.98402352-24.21233578-24.21233576-12.91324551-3.22831047-24.21233579 1.61415524-32.28311377 11.29909024l-111.37674027 111.37674033-109.76258505-109.76258507c-8.07077801-9.68493324-19.36986828-14.52740075-32.28311379-11.29908849-12.91324551 3.22831047-20.98402352 12.91324551-24.212334 24.21233399-3.22831047 12.91324551 1.61415524 24.21233579 11.29908849 32.28311379l72.63700555 75.86531603h-46.81051454c-8.07077801 0-16.141556 3.22831047-22.59817873 9.68493326-6.45662276 6.45662276-9.68493324 14.52740075-9.68493325 22.59818053 0 8.07077801 3.22831047 16.141556 9.68493325 22.59817875 6.45662276 6.45662276 14.52740075 9.68493324 22.59817873 9.68493323h101.69180706v58.1096048h-101.69180706c-8.07077801 0-16.141556 3.22831047-22.59817873 9.68493324-6.45662276 6.45662276-9.68493324 14.52740075-9.68493325 22.59818054 0 8.07077801 3.22831047 16.141556 9.68493325 22.59817877 6.45662276 6.45662276 14.52740075 9.68493324 22.59817873 9.68493323h101.69180706v51.65298204c0 8.07077801 3.22831047 16.141556 9.68493503 22.59817873 4.84246752 4.84246752 11.29909028 8.07077801 19.36986648 9.68493505 8.07077801 0 14.52740075-3.22831047 19.36986829-9.68493505 6.45662276-6.45662276 9.68493324-14.52740075 9.684935-22.59817873v-51.65298204H646.09543623c8.07077801 0 16.141556-3.22831047 22.59817875-9.68493323 6.45662276-6.45662276 9.68493324-14.52740075 9.68493325-22.59817877 0-8.07077801-3.22831047-16.141556-9.68493325-22.59818054-6.45662276-6.45662276-14.52740075-9.68493324-22.59817875-9.68493324h-101.69180705V549.1255795H646.09543623z"  /><path fill="#333333" d="M809.12515679 917.15307121H221.572495c-98.46349478 0-177.55712309-79.09362831-177.55712311-177.5571231v-85.55024926c0-33.89726901 20.98402352-62.95207051 50.0388268-74.2511608 11.29909028-4.84246752 19.36986828-14.52740075 19.36986829-27.44064627 0-11.29909028-6.45662276-22.59817874-17.75571306-27.44064627-30.66895674-12.91324551-51.65298205-41.96804701-51.65298203-75.86531602v-85.55025108c0-98.46349478 79.09362831-177.55712309 177.55712311-177.55712311H807.51100155c98.46349478 0 177.55712309 79.09362831 177.55712309 177.55712311v87.16440632c0 33.89726901-20.98402352 62.95207051-50.03882502 74.25116078-11.29909028 4.84246752-19.36986828 14.52740075-19.36986827 27.44064627 0 12.91324551 8.07077801 22.59817874 19.36986827 27.44064627 30.66895674 11.29909028 50.038825 41.96804701 50.03882502 74.2511608v85.55024926c1.61415524 96.84933953-79.09362831 177.55712309-175.94296785 177.5571231zM124.72315545 654.04569885v85.55024926c0 53.26713727 43.58220226 96.84933953 96.84933955 96.84934133H807.51100155c53.26713727 0 96.84933953-43.58220226 96.84933954-96.84934133v-85.55024926c-41.96804701-16.141556-69.40869328-58.10960481-69.40869328-101.69180707 0-45.1963593 27.44064627-85.55025105 69.40869328-101.69180705v-85.55025109c0-53.26713727-43.58220226-96.84933953-96.84933954-96.84933954H221.572495c-53.26713727 0-96.84933953 43.58220226-96.84933955 96.84933954V452.27623995c41.96804701 16.141556 69.40869328 56.49544778 69.40869328 101.69180706 0 41.96804701-27.44064627 82.32193879-69.40869328 100.07765184z"  /><path fill="#333333" d="M809.12515679 260.19171612H189.28938299l50.03882503-98.4634948c20.98402352-40.35389178 54.88129252-69.40869328 98.4634948-83.93609583 43.58220226-14.52740075 88.77856156-11.29909028 129.1324533 9.68493505l342.20100067 172.71465558z m-513.301501-64.56622576h245.35166111l-101.69180702-51.65298204c-24.21233579-12.91324551-53.26713727-14.52740075-80.70778357-6.45662276-27.44064627 8.07077801-48.42466977 27.44064627-61.33791527 51.65298203l-1.61415525 6.45662277z"  /></svg>