<?xml version="1.0" standalone="no"?><!DOCTYPE svg PUBLIC "-//W3C//DTD SVG 1.1//EN" "http://www.w3.org/Graphics/SVG/1.1/DTD/svg11.dtd"><svg class="icon" width="48px" height="48.00px" viewBox="0 0 1024 1024" version="1.1" xmlns="http://www.w3.org/2000/svg"><path fill="#333333" d="M769.05388566 307.35612244l-48.42466979-48.42466979c-11.29909028-11.29909028-24.21233579 0-24.21233399 0L672.2045461 283.14378666l-177.55712308 177.55712306-29.05480151 103.30596233 103.30596231-29.05480153 177.55712308-177.5571231 24.21233579-24.21233398c-1.61415524 0 11.29909028-11.29909028-1.61415703-25.826491z"  /><path fill="#333333" d="M767.43973041 957.86085475c-16.141556 0-30.66895674-3.22831047-45.19635928-11.29909026-38.73973652-20.98402352-75.86531603-67.79453805-112.99089554-119.44751831-27.44064627-37.1255795-77.47947127-104.92011754-100.07765182-104.92011752s-72.63700554 67.79453805-100.07765 104.92011752c-38.73973652 50.038825-74.25116079 98.46349478-112.99089735 119.44751831-32.28311378 16.141556-67.79453805 14.52740075-101.69180707-4.84246574-48.42466977-29.0548015-85.55025105-96.84933953-85.55024926-158.1872548V210.50678289c0-92.00687204 75.86531603-167.87218985 167.87218808-167.87218988H739.99908415c92.00687204 0 167.87218985 75.86531603 167.87218986 167.87218988V783.53204395c0 61.33791527-37.1255795 129.13245332-85.55025107 158.1872548-17.75571301 9.68493324-35.51142428 16.141556-54.88129253 16.141556zM276.73640817 124.95653183c-48.42466977 0-87.16440628 38.73973652-87.16440632 87.16440629V783.53204395c0 32.28311378 20.98402352 74.25116079 46.81051452 88.77856153 12.91324551 8.07077801 17.75571301 4.84246752 22.59818055 1.61415523 22.59817874-12.91324551 56.49544778-56.49544778 85.55024927-96.84933953 53.26713727-71.02284851 101.69180706-137.20323133 164.64387758-137.20323133s111.37674029 66.18038279 164.64387757 137.20323133c29.0548015 38.73973652 62.95207051 83.93609404 85.5502511 96.84933953 3.22831047 1.61415524 9.68493324 4.84246752 22.59817872-1.61415523 24.21233579-14.52740075 46.81051453-56.49544778 46.81051454-88.77856153V210.50678289c0-48.42466977-38.73973652-87.16440628-87.16440631-87.1644063H276.73640817z"  /><path fill="#333333" d="M468.820932 342.86754669h-124.28998581c-25.82649101 0-46.81051453-20.98402352-46.81051454-46.81051453 0-25.82649101 20.98402352-46.81051453 46.81051454-46.81051453h124.28998581c25.82649101 0 46.81051453 20.98402352 46.81051455 46.81051453 0 25.82649101-20.98402352 46.81051453-46.81051455 46.81051453zM344.53094619 525.26713727c-25.82649101 0-46.81051453-20.98402352-46.81051454-46.8105145 0-25.82649101 20.98402352-46.81051453 46.81051454-46.81051454 25.82649101 0 46.81051453 20.98402352 46.81051451 46.81051454 0 25.82649101-20.98402352 46.81051453-46.81051451 46.8105145z"  /></svg>