<?xml version="1.0" standalone="no"?><!DOCTYPE svg PUBLIC "-//W3C//DTD SVG 1.1//EN" "http://www.w3.org/Graphics/SVG/1.1/DTD/svg11.dtd"><svg t="1596793240731" class="icon" viewBox="0 0 1024 1024" version="1.1" xmlns="http://www.w3.org/2000/svg" p-id="2199" xmlns:xlink="http://www.w3.org/1999/xlink" width="48" height="48"><defs><style type="text/css"></style></defs><path d="M586.045855 771.160494c0 39.731922-31.604938 73.142857-71.33686 74.045855-39.731922 1.805996-74.045855-28.895944-76.75485-68.627866v-5.417989h148.09171z m-74.045855-592.366843c102.941799 0 189.62963 77.657848 201.368607 180.599647l10.835979 93.911817c6.320988 53.276896 26.186949 104.747795 58.694885 148.09171l33.410935 44.246914c12.641975 17.156966 14.447972 39.731922 5.417989 57.791887-9.029982 18.962963-28.895944 30.70194-49.664903 30.70194H252.839506c-20.768959 0-40.634921-11.738977-49.664903-30.70194-9.029982-18.962963-7.223986-41.537919 5.41799-57.791887l33.410934-44.246914c32.507937-43.343915 52.373898-93.911817 58.694886-148.09171l10.835979-93.911817c10.835979-102.941799 97.52381-180.599647 200.465608-180.599647z m0 74.045855c-65.918871 0-120.098765 49.664903-127.322751 114.680776L373.84127 460.529101c-7.223986 66.821869-32.507937 130.031746-73.142857 184.21164L289.862434 659.188713h444.275132l-10.835979-14.447972c-37.925926-50.567901-62.306878-109.262787-71.33686-170.666667L650.15873 460.529101l-10.835979-93.911817C632.098765 301.601411 577.015873 252.839506 512 252.839506z m0 0" fill="#AF8D55" p-id="2200"></path></svg>