<?xml version="1.0" standalone="no"?><!DOCTYPE svg PUBLIC "-//W3C//DTD SVG 1.1//EN" "http://www.w3.org/Graphics/SVG/1.1/DTD/svg11.dtd"><svg class="icon" width="48px" height="48.00px" viewBox="0 0 1024 1024" version="1.1" xmlns="http://www.w3.org/2000/svg"><path d="M832.45248512 223.96683219h-119.70209589V266.3613243c0 24.93793694-19.95034954 43.64138861-43.64138862 43.64138998-24.93793694 0-43.64138861-19.95034954-43.64138859-43.64138998v-42.39449211h-224.44142965V266.3613243c0 24.93793694-19.95034954 43.64138861-43.6413886 43.64138998S311.24961077 291.29926124 311.24961077 266.3613243v-42.39449211H191.54751488c-82.2951912 0-149.62761885 67.33242902-149.62761886 149.62762025v411.4759532c0 82.2951912 67.33242902 149.62761885 149.62761886 149.62761884h639.65807374c82.2951912 0 149.62761885-67.33242902 149.62761886-149.62761884v-411.4759532c1.2468965-82.2951912-66.08553252-149.62761885-148.38072236-149.62762025zM742.67591354 652.89934196c0 47.38207948-38.65380121 87.28277859-87.28277857 87.2827772H379.82893632l37.40690471 37.4069047c11.22207127 11.22207127 11.22207127 29.92552432 0 41.14759562-11.22207127 11.22207127-29.92552432 11.22207127-41.1475956 0l-87.28277721-87.28277722c-4.98758739-4.98758739-8.72827828-12.46896778-8.72827826-19.95034953 0-7.48138039 2.49379299-14.96276217 8.72827826-19.95034956l87.28277721-87.28277857c4.98758739-4.98758739 12.46896778-8.72827828 19.95034954-8.72827691s14.96276217 2.49379299 19.95034955 8.72827691c11.22207127 11.22207127 11.22207127 29.92552432 0 41.14759558l-37.4069047 37.40690473h276.81109515c7.48138039 0 14.96276217-2.49379299 19.95034954-8.72827691 4.98758739-4.98758739 8.72827828-12.46896778 8.72827826-19.95034954v-28.67862644c0-7.48138039 2.49379299-14.96276217 8.72827689-19.95034956 4.98758739-4.98758739 12.46896778-8.72827828 19.95034957-8.72827827 7.48138039 0 14.96276217 2.49379299 19.95034953 8.72827827 4.98758739 4.98758739 8.72827828 12.46896778 8.7282769 19.95034956V652.89934196z m-7.48138176-153.36830974l-87.28277721 87.2827772c-4.98758739 4.98758739-12.46896778 8.72827828-19.95034954 8.72827827-7.48138039 0-14.96276217-2.49379299-19.95034955-8.72827827-4.98758739-4.98758739-8.72827828-12.46896778-8.72827689-19.95034955 0-7.48138039 2.49379299-14.96276217 8.72827689-19.95034816l37.4069047-37.4069047H367.35996854c-16.20965867 0-28.67862644 12.46896778-28.67862783 28.67862642v28.67862644c0 7.48138039-2.49379299 14.96276217-8.72827827 19.95034955-4.98758739 4.98758739-12.46896778 8.72827828-19.95034816 8.72827827-16.20965867 0-28.67862644-12.46896778-28.67862782-28.67862782v-28.67862644c0-47.38207948 38.65380121-87.28277859 87.28277857-87.28277858h276.81109515l-37.4069047-37.40690471c-11.22207127-11.22207127-11.22207127-29.92552432 0-41.1475942 11.22207127-11.22207127 29.92552432-11.22207127 41.14759559 0l87.28277859 87.28277718c4.98758739 4.98758739 8.72827828 12.46896778 8.72827688 19.95034956s-4.98758739 14.96276217-9.97517476 19.95034954z"  /><path d="M354.89099939 132.94336411v91.02346808h43.64138859v-91.02346808c0-24.93793694-19.95034954-43.64138861-43.64138859-43.64138859s-43.64138861 19.95034954-43.64138862 43.64138859v91.02346808h43.64138862v-91.02346808zM354.89099939 310.00271428c24.93793694 0 43.64138861-19.95034954 43.64138859-43.64138998v-42.39449211h-43.64138859V266.3613243v-42.39449211h-43.64138862V266.3613243c0 24.93793694 19.95034954 43.64138861 43.64138862 43.64138998zM669.10900061 132.94336411v91.02346808h43.64138862v-91.02346808c0-24.93793694-19.95034954-43.64138861-43.64138862-43.64138859-24.93793694 0-43.64138861 19.95034954-43.64138859 43.64138859v91.02346808h43.64138859v-91.02346808zM669.10900061 310.00271428c24.93793694 0 43.64138861-19.95034954 43.64138862-43.64138998v-42.39449211h-43.64138862V266.3613243v-42.39449211h-43.64138859V266.3613243c-1.2468965 24.93793694 18.70345305 43.64138861 43.64138859 43.64138998z"  /></svg>