<?xml version="1.0" standalone="no"?><!DOCTYPE svg PUBLIC "-//W3C//DTD SVG 1.1//EN" "http://www.w3.org/Graphics/SVG/1.1/DTD/svg11.dtd"><svg class="icon" width="48px" height="48.00px" viewBox="0 0 1024 1024" version="1.1" xmlns="http://www.w3.org/2000/svg"><path d="M793.66259525 200.27579316C793.66259525 126.70888022 733.81154799 66.85783296 660.24463508 66.85783296H369.71767428c-73.56691292 0-133.41796018 59.85104726-133.41796021 133.4179602M514.35770572 555.64138861zM834.81019084 223.96683219H193.90522198c-82.2951912 0-149.62761885 67.33242902-149.62762022 149.62762025v386.53801626c0 82.2951912 67.33242902 149.62761885 149.62762022 149.62761885h639.65807237c82.2951912 0 149.62761885-67.33242902 149.62761884-149.62761885v-386.53801626c1.2468965-81.04829331-66.08553252-149.62761885-148.38072235-149.62762025z m-36.1600082 347.88421507L630.31911073 738.93522266c-14.96276217 14.96276217-41.14759559 3.74069089-41.1475942-17.45655517v-83.5420877c0-13.71586565-11.22207127-23.69103905-24.93793694-23.69104044H247.52178535c-13.71586565 0-24.93793694-11.22207127-24.93793693-23.69103904v-72.32001642c0-13.71586565 11.22207127-23.69103905 24.93793693-23.69103905h316.71179424c13.71586565 0 24.93793694-11.22207127 24.93793694-23.69104043v-83.54208771c0-21.19724605 26.18483343-32.41931732 41.1475942-16.20965866l169.57796979 167.08417539c8.72827828 8.72827828 8.72827828 23.69103905-1.24689788 33.66621383z"  /></svg>