<?xml version="1.0" standalone="no"?><!DOCTYPE svg PUBLIC "-//W3C//DTD SVG 1.1//EN" "http://www.w3.org/Graphics/SVG/1.1/DTD/svg11.dtd"><svg class="icon" width="48px" height="48.00px" viewBox="0 0 1024 1024" version="1.1" xmlns="http://www.w3.org/2000/svg"><path d="M842.4276599 766.3669526c18.70345305-27.43172994 28.67862644-59.85104726 28.67862645-96.01105548 0-96.01105548-77.30760381-173.31865929-173.3186593-173.31865929s-173.31865929 77.30760381-173.31865927 173.31865929c0 34.91311171 11.22207127 68.57932554 28.67862781 96.01105548-44.88828649 7.48138039-79.80139681 47.38207948-79.8013968 94.76415896v11.22207129c0 53.61656337 43.64138861 97.25795198 97.25795197 97.25795334H827.46489774c53.61656337 0 97.25795198-43.64138861 97.25795198-97.25795334v-11.22207129c-1.2468965-47.38207948-36.16000821-87.28277859-82.29518982-94.76415896z m-144.64003285 8.72827826c-41.14759559 0-74.81380942-33.66621383-74.81380942-74.81380941 0-7.48138039 6.23448389-13.71586565 13.71586567-13.71586567s13.71586565 6.23448389 13.71586426 13.71586567c0 26.18483343 21.19724605 47.38207948 47.38207949 47.38207948 26.18483343 0 47.38207948-21.19724605 47.38207949-47.38207948 0-7.48138039 6.23448389-13.71586565 13.71586566-13.71586567s13.71586565 6.23448389 13.71586429 13.71586567c0 41.14759559-33.66621383 74.81380942-74.81380944 74.81380941zM504.51861961 277.58339694c18.70345305-27.43172994 28.67862644-59.85104726 28.67862644-96.01105684 0-96.01105548-77.30760381-173.31865929-173.31865929-173.3186579s-173.31865929 77.30760381-173.31865927 173.3186579c0 34.91311171 11.22207127 68.57932554 28.67862782 96.01105684-44.88828649 7.48138039-79.80139681 47.38207948-79.8013968 94.764159v11.22207126c0 53.61656337 43.64138861 97.25795198 97.25795195 97.25795198h256.86074699c53.61656337 0 97.25795198-43.64138861 97.25795197-97.25795198v-11.22207126c-2.49379299-46.13518299-37.40690471-86.03588069-82.29518981-94.764159z m-145.88692934 9.9751734c-41.14759559 0-74.81380942-33.66621383-74.81380943-74.81380941 0-7.48138039 6.23448389-13.71586565 13.71586428-13.71586429s13.71586565 6.23448389 13.71586565 13.71586429c0 26.18483343 21.19724605 47.38207948 47.3820795 47.38207946s47.38207948-21.19724605 47.38207948-47.38207946c0-7.48138039 6.23448389-13.71586565 13.71586565-13.71586429s13.71586565 6.23448389 13.71586429 13.71586429c1.2468965 39.90069909-32.41931732 74.81380942-74.81380942 74.81380941zM645.41796018 141.67164239c98.50484986 9.97517478 178.30624667 69.82622205 194.51590533 170.82486488h-57.35725425l92.27036596 137.15865108 92.27036459-137.15865108h-63.59173814c-17.45655516-137.15865107-120.94899239-226.93522266-251.87315961-239.40419042-18.70345305-1.2468965-34.91311171 13.71586565-34.91311031 33.66621383 1.2468965 18.70345305 13.71586565 33.66621383 28.67862643 34.91311171zM349.903412 851.15593679c-110.97381763-9.97517478-194.51590533-83.54208769-198.25659485-205.73797661h61.09794378l-92.2703646-137.15865107-92.27036596 137.15865107h61.09794515C91.79576852 802.5269608 202.76958615 904.77250016 343.66892811 918.48836583c18.70345305 1.2468965 34.91311171-13.71586565 34.91311171-33.66621383 0-17.45655516-12.46896778-31.17242082-28.67862782-33.66621521z"  /></svg>