<?xml version="1.0" standalone="no"?><!DOCTYPE svg PUBLIC "-//W3C//DTD SVG 1.1//EN" "http://www.w3.org/Graphics/SVG/1.1/DTD/svg11.dtd"><svg class="icon" viewBox="0 0 1024 1024" version="1.1" xmlns="http://www.w3.org/2000/svg"><path d="M963.499118 478.589065l-433.439153-398.222222c-9.932981-9.932981-26.186949-9.932981-37.022928 0L60.500882 478.589065c-10.835979 9.932981-11.738977 27.089947-1.805997 37.925926s27.089947 11.738977 37.925926 1.805997l21.671958-19.865962v355.781306c0 56.888889 48.761905 103.844797 109.262787 103.844797h569.791887c60.500882 0 109.262787-46.955908 109.262786-103.844797V499.358025l21.671958 19.865961c5.417989 4.514991 11.738977 7.223986 18.059965 7.223986 7.223986 0 14.447972-2.708995 19.865961-9.029983 9.029982-10.835979 8.126984-27.992945-2.708995-38.828924zM707.047619 775.675485H316.952381c-15.35097 0-27.089947-11.738977-27.089947-27.089947s11.738977-27.089947 27.089947-27.089947h390.998236c15.35097 0 27.089947 11.738977 27.089947 27.089947s-12.641975 27.089947-27.992945 27.089947z"  /></svg>