<?xml version="1.0" standalone="no"?><!DOCTYPE svg PUBLIC "-//W3C//DTD SVG 1.1//EN" "http://www.w3.org/Graphics/SVG/1.1/DTD/svg11.dtd"><svg class="icon" viewBox="0 0 1024 1024" version="1.1" xmlns="http://www.w3.org/2000/svg"><path d="M963.499118 481.29806l-433.439153-398.222222c-9.932981-9.932981-26.186949-9.932981-37.022928 0l-433.439153 398.222222c-10.835979 9.932981-11.738977 27.089947-1.805997 37.925926s27.089947 11.738977 37.925926 1.805996l21.671958-19.865961V857.848325c0 56.888889 48.761905 103.844797 109.262786 103.844797h569.791887c60.500882 0 109.262787-46.955908 109.262787-103.844797V502.067019l21.671958 19.865962c5.417989 4.514991 11.738977 7.223986 18.059964 7.223985 7.223986 0 14.447972-2.708995 19.865962-9.029982 9.932981-11.738977 9.029982-28.895944-1.805997-38.828924zM851.527337 857.848325c0 27.089947-24.380952 49.664903-55.082893 49.664903H226.652557c-29.798942 0-55.082892-22.574956-55.082892-49.664903V451.499118l339.527337-312.43739L850.624339 451.499118v406.349207z"  /><path d="M289.862434 751.294533c0 15.35097 11.738977 27.089947 27.089947 27.089947h390.998236c15.35097 0 27.089947-11.738977 27.089947-27.089947s-11.738977-27.089947-27.089947-27.089947H316.952381c-15.35097 0-27.089947 11.738977-27.089947 27.089947z"  /></svg>