<?xml version="1.0" standalone="no"?><!DOCTYPE svg PUBLIC "-//W3C//DTD SVG 1.1//EN" "http://www.w3.org/Graphics/SVG/1.1/DTD/svg11.dtd"><svg t="1596686663373" class="icon" viewBox="0 0 1024 1024" version="1.1" xmlns="http://www.w3.org/2000/svg" p-id="2415" xmlns:xlink="http://www.w3.org/1999/xlink" width="48" height="48"><defs><style type="text/css"></style></defs><path d="M789.220459 414.47619L600.493827 228.458554c-4.514991-4.514991-10.835979-7.223986-17.156966-7.223986s-12.641975 2.708995-17.156967 7.223986l-352.169312 361.199294c-3.611993 3.611993-5.417989 8.126984-6.320988 12.641976l-47.858906 252.839506c-1.805996 8.126984 0.902998 16.253968 7.223986 21.671957 4.514991 4.514991 10.835979 7.223986 17.156966 7.223986 1.805996 0 3.611993 0 5.41799-0.902998l223.943562-49.664903c4.514991-0.902998 9.029982-3.611993 12.641976-7.223986l363.908289-378.356261c9.029982-9.029982 8.126984-24.380952-0.902998-33.410935zM417.185185 764.839506L323.273369 671.830688c-9.932981-9.932981-25.283951-9.932981-34.313933 0-9.932981 9.932981-9.029982 25.283951 0 34.313933l85.784832 84.881834-159.830688 35.216931 38.828924-209.495591L583.336861 279.929453l154.412698 150.800706-320.564374 334.109347z m0 0" p-id="2416"></path></svg>