<?xml version="1.0" standalone="no"?><!DOCTYPE svg PUBLIC "-//W3C//DTD SVG 1.1//EN" "http://www.w3.org/Graphics/SVG/1.1/DTD/svg11.dtd"><svg t="1596727632794" class="icon" viewBox="0 0 1024 1024" version="1.1" xmlns="http://www.w3.org/2000/svg" p-id="2208" xmlns:xlink="http://www.w3.org/1999/xlink" width="48" height="48"><defs><style type="text/css"></style></defs><path d="M545.410935 136.352734c-207.689594 0-375.647266 167.957672-375.647267 375.647266s167.957672 375.647266 375.647267 375.647266S921.058201 719.689594 921.058201 512 753.100529 136.352734 545.410935 136.352734z" fill="#13D1B5" p-id="2209"></path><path d="M736.846561 307.0194c-1.805996-0.902998-3.611993-0.902998-5.41799 0-0.902998 0-57.791887 38.828924-94.814814 38.828925h-6.320988c-15.35097-1.805996-27.089947-7.223986-39.731922-12.641976-18.059965-8.126984-37.022928-16.253968-66.82187-16.253968h-6.320988c-46.05291 1.805996-86.687831 13.544974-98.426807 18.059965l-6.320988-7.223986c-1.805996-1.805996-3.611993-1.805996-6.320988-0.902998l-24.380952 9.93298c-2.708995 0.902998-3.611993 3.611993-3.611993 6.320988l116.486773 452.402116c0.902998 2.708995 2.708995 4.514991 5.417989 4.514991 1.805996 0 2.708995-0.902998 3.611993-1.805996l27.992945-27.089947c0.902998-0.902998 1.805996-3.611993 1.805997-5.41799 0-0.902998-24.380952-116.486772-26.186949-142.673721-0.902998-13.544974 4.514991-27.992945 15.35097-38.828924 10.835979-11.738977 33.410935-26.186949 76.75485-26.186949 24.380952 0 46.955908-3.611993 66.821869-9.029982 16.253968-5.417989 30.70194-11.738977 43.343916-20.76896 21.671958-15.35097 29.798942-30.70194 29.798942-31.604938 0-0.902998 0.902998-1.805996 0.902998-2.708995V311.534392c-0.902998-1.805996-1.805996-3.611993-3.611993-4.514992z" fill="#FFFFFF" p-id="2210"></path></svg>