<?xml version="1.0" standalone="no"?><!DOCTYPE svg PUBLIC "-//W3C//DTD SVG 1.1//EN" "http://www.w3.org/Graphics/SVG/1.1/DTD/svg11.dtd"><svg t="1596596813751" class="icon" viewBox="0 0 1024 1024" version="1.1" xmlns="http://www.w3.org/2000/svg" p-id="2310" xmlns:xlink="http://www.w3.org/1999/xlink" width="48" height="48"><defs><style type="text/css"></style></defs><path d="M110.165785 531.865961c0 104.747795 40.634921 203.174603 114.680776 277.220459v46.955908c0 37.022928 30.70194 68.627866 68.627866 68.627866h208.592592c107.45679 0 207.689594-42.440917 282.638448-120.098765 74.045855-77.657848 113.777778-179.696649 109.262787-287.15344-8.126984-204.077601-172.472663-368.42328-376.550265-376.550264-107.45679-4.514991-210.398589 34.313933-287.153439 109.262786C153.5097 324.176367 110.165785 424.409171 110.165785 531.865961z m70.433862-0.902998c0-87.590829 34.313933-169.763668 98.426808-231.167549 61.40388-57.791887 139.964727-89.396825 223.040564-89.396825H514.708995C680.86067 216.719577 816.310406 352.169312 822.631393 519.223986c3.611993 88.493827-27.992945 172.472663-89.396825 235.68254-61.40388 64.112875-143.57672 98.426808-231.167549 98.426807H296.183422v-45.149911c0-18.059965-7.223986-35.216931-20.76896-48.761905C214.010582 698.017637 180.599647 616.747795 180.599647 530.962963z" p-id="2311"></path><path d="M714.271605 512c0-16.253968-8.126984-30.70194-22.574956-37.925926-13.544974-8.126984-30.70194-8.126984-44.246914 0-13.544974 8.126984-22.574956 22.574956-22.574955 37.925926 0 16.253968 8.126984 30.70194 22.574955 37.925926 13.544974 8.126984 30.70194 8.126984 44.246914 0 14.447972-8.126984 22.574956-22.574956 22.574956-37.925926z m0 0M546.313933 512c0-16.253968-8.126984-30.70194-22.574956-37.925926-13.544974-8.126984-30.70194-8.126984-44.246914 0-13.544974 8.126984-22.574956 22.574956-22.574955 37.925926 0 24.380952 19.865961 44.246914 44.246913 44.246914 25.283951 0 45.149912-19.865961 45.149912-44.246914z m0 0M378.356261 512c0-16.253968-8.126984-30.70194-22.574956-37.925926-13.544974-8.126984-30.70194-8.126984-44.246913 0-13.544974 8.126984-22.574956 22.574956-22.574956 37.925926 0 16.253968 8.126984 30.70194 22.574956 37.925926 13.544974 8.126984 30.70194 8.126984 44.246913 0 14.447972-8.126984 22.574956-22.574956 22.574956-37.925926z m0 0" p-id="2312"></path></svg>