<?xml version="1.0" standalone="no"?><!DOCTYPE svg PUBLIC "-//W3C//DTD SVG 1.1//EN" "http://www.w3.org/Graphics/SVG/1.1/DTD/svg11.dtd"><svg t="1596610386915" class="icon" viewBox="0 0 1024 1024" version="1.1" xmlns="http://www.w3.org/2000/svg" p-id="3338" xmlns:xlink="http://www.w3.org/1999/xlink" width="48" height="48"><defs><style type="text/css"></style></defs><path d="M772.96649 884.938272H257.354497c-85.784832 0-156.218695-70.433862-156.218695-156.218695V397.319224c0-85.784832 70.433862-156.218695 156.218695-156.218695h131.837743c19.865961 0 35.216931 16.253968 35.216931 35.216931s-16.253968 35.216931-35.216931 35.216932H257.354497c-46.955908 0-84.881834 37.925926-84.881834 84.881834v330.497354c0 46.955908 37.925926 84.881834 84.881834 84.881834h515.611993c46.955908 0 84.881834-37.925926 84.881835-84.881834V397.319224c0-46.955908-37.925926-84.881834-84.881835-84.881834h-252.839506c-19.865961 0-35.216931-16.253968-35.216931-35.216931s16.253968-35.216931 35.216931-35.216932h252.839506c85.784832 0 156.218695 70.433862 156.218695 156.218695v330.497355c0 85.784832-70.433862 156.218695-156.218695 156.218695z" fill="#444444" p-id="3339"></path><path d="M514.708995 735.943563zM514.708995 539.089947zM514.708995 512.902998zM514.708995 400.931217zM514.708995 400.931217z" fill="#45B692" p-id="3340"></path><path d="M635.710758 621.262787h-89.396825v-50.567902h89.396825c15.35097 0 27.992945-12.641975 27.992946-27.992945-1.805996-14.447972-13.544974-25.283951-27.992946-27.992945h-50.567901l66.82187-66.82187c9.029982-6.320988 12.641975-18.059965 10.835978-27.992945-2.708995-10.835979-10.835979-18.962963-21.671957-21.671958-10.835979-2.708995-21.671958 1.805996-27.992946 10.835979l-95.717813 99.329806-100.232804-100.232804c-6.320988-9.029982-18.059965-12.641975-27.992945-10.835979-10.835979 2.708995-18.962963 10.835979-21.671958 21.671958-2.708995 10.835979 1.805996 21.671958 10.835979 27.992945l64.112875 66.821869h-41.537919c-7.223986 0-14.447972 2.708995-19.865961 8.126985-5.417989 5.417989-8.126984 12.641975-8.126984 19.865961 0 7.223986 2.708995 14.447972 8.126984 19.865961 5.417989 5.417989 12.641975 8.126984 19.865961 8.126984h89.396825v50.567901h-89.396825c-7.223986 0-14.447972 2.708995-19.865961 8.126984-5.417989 5.417989-8.126984 12.641975-8.126984 19.865962 0 7.223986 2.708995 14.447972 8.126984 19.865961 5.417989 5.417989 12.641975 8.126984 19.865961 8.126984h89.396825v45.149912c0 7.223986 2.708995 14.447972 8.126984 19.865961 5.417989 5.417989 12.641975 8.126984 19.865962 8.126984 7.223986 0 14.447972-2.708995 19.865961-8.126984 5.417989-5.417989 8.126984-12.641975 8.126984-19.865961v-45.149912h89.396825c14.447972-1.805996 25.283951-13.544974 27.992946-27.992945 0-14.447972-12.641975-27.089947-27.992946-27.089947z" fill="#13D1B5" p-id="3341"></path><path d="M514.708995 312.43739c-9.029982 0-18.059965-3.611993-25.283951-10.835979-13.544974-13.544974-13.544974-36.119929 0-50.567901l108.359788-106.553792c13.544974-13.544974 36.119929-13.544974 50.567902 0 13.544974 13.544974 13.544974 36.119929 0 50.567901l-108.359789 107.45679c-7.223986 6.320988-16.253968 9.932981-25.28395 9.932981z" fill="#444444" p-id="3342"></path></svg>