<?xml version="1.0" standalone="no"?><!DOCTYPE svg PUBLIC "-//W3C//DTD SVG 1.1//EN" "http://www.w3.org/Graphics/SVG/1.1/DTD/svg11.dtd"><svg t="1596610382128" class="icon" viewBox="0 0 1024 1024" version="1.1" xmlns="http://www.w3.org/2000/svg" p-id="3209" xmlns:xlink="http://www.w3.org/1999/xlink" width="48" height="48"><defs><style type="text/css"></style></defs><path d="M769.354497 887.647266h-514.708994c-85.784832 0-156.218695-70.433862-156.218695-156.218695V419.89418c0-85.784832 70.433862-156.218695 156.218695-156.218695h515.611993c85.784832 0 156.218695 70.433862 156.218694 156.218695V731.428571c-0.902998 85.784832-70.433862 156.218695-157.121693 156.218695z m-514.708994-552.63492c-46.955908 0-84.881834 37.925926-84.881835 84.881834V731.428571c0 46.955908 37.925926 84.881834 84.881835 84.881835h515.611993c46.955908 0 84.881834-37.925926 84.881834-84.881835V419.89418c0-46.955908-37.925926-84.881834-84.881834-84.881834H254.645503z" fill="#444444" p-id="3210"></path><path d="M736.846561 315.146384c-19.865961 0-35.216931-16.253968-35.216931-35.216931 0-39.731922-32.507937-72.239859-72.239859-72.239859h-234.779542c-39.731922 0-72.239859 32.507937-72.239859 72.239859 0 19.865961-16.253968 35.216931-35.216931 35.216931s-35.216931-16.253968-35.216931-35.216931c0-79.463845 64.112875-143.57672 143.57672-143.576719h233.876543c79.463845 0 143.57672 64.112875 143.576719 143.576719-0.902998 19.865961-16.253968 35.216931-36.119929 35.216931z" fill="#444444" p-id="3211"></path><path d="M512 566.179894z" fill="#45B692" p-id="3212"></path><path d="M441.566138 712.465608c-9.932981 0-20.768959-4.514991-27.089948-12.641975L301.601411 560.761905c-12.641975-14.447972-9.932981-37.022928 5.417989-49.664903 15.35097-12.641975 37.925926-9.932981 49.664903 5.417989l91.202822 111.971781 226.652558-158.024691c16.253968-10.835979 37.925926-7.223986 49.664903 9.029982 10.835979 16.253968 7.223986 37.925926-9.029983 49.664903L461.432099 706.144621c-5.417989 3.611993-12.641975 6.320988-19.865961 6.320987z" fill="#13D1B5" p-id="3213"></path></svg>