<?xml version="1.0" standalone="no"?><!DOCTYPE svg PUBLIC "-//W3C//DTD SVG 1.1//EN" "http://www.w3.org/Graphics/SVG/1.1/DTD/svg11.dtd"><svg t="1602300661938" class="icon" viewBox="0 0 1024 1024" version="1.1" xmlns="http://www.w3.org/2000/svg" p-id="2300" xmlns:xlink="http://www.w3.org/1999/xlink" width="48" height="48"><defs><style type="text/css"></style></defs><path d="M747.68254 914.737213H295.280423c-55.082892 0-99.329806-44.246914-99.329806-99.329806V226.652557c0-55.082892 44.246914-99.329806 99.329806-99.329806h452.402117c55.082892 0 99.329806 44.246914 99.329806 99.329806v587.851852c0 55.082892-44.246914 100.232804-99.329806 100.232804zM295.280423 172.472663c-29.798942 0-54.179894 24.380952-54.179894 54.179894v587.851852c0 29.798942 24.380952 54.179894 54.179894 54.179894h452.402117c29.798942 0 54.179894-24.380952 54.179894-54.179894V226.652557c0-29.798942-24.380952-54.179894-54.179894-54.179894H295.280423z" fill="#999999" p-id="2301"></path><path d="M693.502646 342.236332h-343.13933c-12.641975 0-22.574956-9.932981-22.574956-22.574956s9.932981-22.574956 22.574956-22.574956h343.13933c12.641975 0 22.574956 9.932981 22.574955 22.574956-0.902998 12.641975-10.835979 22.574956-22.574955 22.574956zM693.502646 493.940035h-343.13933c-12.641975 0-22.574956-9.932981-22.574956-22.574956s9.932981-22.574956 22.574956-22.574956h343.13933c12.641975 0 22.574956 9.932981 22.574955 22.574956-0.902998 11.738977-10.835979 22.574956-22.574955 22.574956zM558.05291 671.830688h-207.689594c-12.641975 0-22.574956-9.932981-22.574956-22.574956s9.932981-22.574956 22.574956-22.574956h207.689594c12.641975 0 22.574956 9.932981 22.574956 22.574956-0.902998 12.641975-10.835979 22.574956-22.574956 22.574956z" fill="#999999" p-id="2302"></path></svg>