<?xml version="1.0" standalone="no"?><!DOCTYPE svg PUBLIC "-//W3C//DTD SVG 1.1//EN" "http://www.w3.org/Graphics/SVG/1.1/DTD/svg11.dtd"><svg t="1596610373116" class="icon" viewBox="0 0 1024 1024" version="1.1" xmlns="http://www.w3.org/2000/svg" p-id="3081" xmlns:xlink="http://www.w3.org/1999/xlink" width="48" height="48"><defs><style type="text/css"></style></defs><path d="M769.354497 902.095238h-514.708994c-85.784832 0-156.218695-70.433862-156.218695-156.218695V415.379189c0-85.784832 70.433862-156.218695 156.218695-156.218695h515.611993c85.784832 0 156.218695 70.433862 156.218694 156.218695v330.497354c-0.902998 85.784832-70.433862 156.218695-157.121693 156.218695z m-514.708994-572.500882c-46.955908 0-84.881834 37.925926-84.881835 84.881834v330.497355c0 46.955908 37.925926 84.881834 84.881835 84.881834h515.611993c46.955908 0 84.881834-37.925926 84.881834-84.881834V415.379189c0-46.955908-37.925926-84.881834-84.881834-84.881835H254.645503z" fill="#444444" p-id="3082"></path><path d="M489.425044 526.447972H342.236332c-15.35097 0-27.089947-12.641975-27.089948-27.089947v-31.604939c0-15.35097 12.641975-27.089947 27.089948-27.089947h147.188712c15.35097 0 27.089947 12.641975 27.089947 27.089947v31.604939c0.902998 14.447972-11.738977 27.089947-27.089947 27.089947zM373.84127 696.21164h-31.604938c-15.35097 0-27.089947-12.641975-27.089948-27.089947v-31.604938c0-15.35097 12.641975-27.089947 27.089948-27.089947h31.604938c15.35097 0 27.089947 12.641975 27.089947 27.089947V668.218695c0 15.35097-12.641975 27.992945-27.089947 27.992945zM490.328042 722.398589l8.126984-74.948854 165.248678-194.14462c15.35097-18.059965 42.440917-19.865961 59.597883-4.514992 18.059965 15.35097 19.865961 42.440917 4.514991 59.597884L570.694885 694.405644 490.328042 722.398589z" fill="#13D1B5" p-id="3083"></path><path d="M385.580247 329.594356c-19.865961 0-35.216931-16.253968-35.216931-35.216931V186.920635c0-19.865961 16.253968-35.216931 35.216931-35.216931 19.865961 0 35.216931 16.253968 35.216931 35.216931v107.45679c0.902998 19.865961-15.35097 35.216931-35.216931 35.216931zM638.419753 329.594356c-19.865961 0-35.216931-16.253968-35.216931-35.216931V186.920635c0-19.865961 16.253968-35.216931 35.216931-35.216931s35.216931 16.253968 35.216931 35.216931v107.45679c0 19.865961-16.253968 35.216931-35.216931 35.216931z" fill="#444444" p-id="3084"></path></svg>