<?xml version="1.0" standalone="no"?><!DOCTYPE svg PUBLIC "-//W3C//DTD SVG 1.1//EN" "http://www.w3.org/Graphics/SVG/1.1/DTD/svg11.dtd"><svg t="1596610363480" class="icon" viewBox="0 0 1024 1024" version="1.1" xmlns="http://www.w3.org/2000/svg" p-id="2951" xmlns:xlink="http://www.w3.org/1999/xlink" width="48" height="48"><defs><style type="text/css"></style></defs><path d="M195.950617 323.273369c-10.835979 0-20.768959-4.514991-27.992945-13.544974-12.641975-15.35097-9.932981-37.925926 5.417989-49.664903 60.500882-47.858907 350.363316-102.941799 407.252205-113.777778 103.844797-18.962963 157.121693-13.544974 200.465608 71.336861 0.902998 1.805996 1.805996 2.708995 1.805997 4.514991l10.835979 32.507937c6.320988 18.962963-3.611993 38.828924-21.671958 45.149911-18.962963 6.320988-38.828924-3.611993-45.149912-21.671957l-9.93298-29.798942c-18.962963-36.119929-27.089947-49.664903-122.80776-31.604938-135.449735 24.380952-341.333333 72.239859-375.647267 99.329806-6.320988 4.514991-14.447972 7.223986-22.574956 7.223986z" fill="#444444" p-id="2952"></path><path d="M696.21164 886.744268H240.197531C153.5097 886.744268 83.978836 817.213404 83.978836 731.428571V400.028219C83.978836 314.243386 153.5097 243.809524 240.197531 243.809524h515.611993c85.784832 0 156.218695 70.433862 156.218695 156.218695v194.144621c0 19.865961-16.253968 35.216931-35.216932 35.216931s-35.216931-16.253968-35.216931-35.216931V400.028219c0-46.955908-37.925926-84.881834-84.881834-84.881835H240.197531c-46.955908 0-84.881834 37.925926-84.881834 84.881835V731.428571c0 46.955908 37.925926 84.881834 84.881834 84.881835h456.014109c19.865961 0 35.216931 16.253968 35.216931 35.216931s-15.35097 35.216931-35.216931 35.216931z" fill="#444444" p-id="2953"></path><path d="M617.650794 612.232804h-89.396826v-50.567901h89.396826c15.35097 0 27.992945-12.641975 27.992945-27.992945-1.805996-14.447972-13.544974-25.283951-27.992945-27.992946h-50.567902l66.82187-66.821869c9.029982-6.320988 12.641975-18.059965 10.835979-27.992945-2.708995-10.835979-10.835979-18.962963-21.671958-21.671958-10.835979-2.708995-21.671958 1.805996-27.992945 10.835979L500.261023 500.261023 400.028219 400.028219c-6.320988-9.029982-18.059965-12.641975-27.992946-10.835979-10.835979 2.708995-18.962963 10.835979-21.671957 21.671958-2.708995 10.835979 1.805996 21.671958 10.835979 27.992945l63.209876 66.821869h-41.537919c-7.223986 0-14.447972 2.708995-19.865961 8.126984-5.417989 5.417989-8.126984 12.641975-8.126984 19.865962 0 7.223986 2.708995 14.447972 8.126984 19.865961 5.417989 5.417989 12.641975 8.126984 19.865961 8.126984h89.396826v50.567901h-89.396826c-7.223986 0-14.447972 2.708995-19.865961 8.126984-5.417989 5.417989-8.126984 12.641975-8.126984 19.865962 0 7.223986 2.708995 14.447972 8.126984 19.865961 5.417989 5.417989 12.641975 8.126984 19.865961 8.126984h89.396826v45.149912c0 7.223986 2.708995 14.447972 8.126984 19.865961 5.417989 5.417989 12.641975 8.126984 19.865961 8.126984 7.223986 0 14.447972-2.708995 19.865961-8.126984 5.417989-5.417989 8.126984-12.641975 8.126984-19.865961v-45.149912h89.396826c14.447972-1.805996 25.283951-13.544974 27.992945-27.992945 0-15.35097-12.641975-27.992945-27.992945-27.992946z" fill="#13D1B5" p-id="2954"></path><path d="M797.347443 846.109347c-19.865961 0-35.216931-16.253968-35.216932-35.216931V703.435626c0-19.865961 16.253968-35.216931 35.216932-35.216931s35.216931 16.253968 35.216931 35.216931v107.45679c0 19.865961-16.253968 35.216931-35.216931 35.216931z" fill="#444444" p-id="2955"></path><path d="M904.804233 846.109347H797.347443c-19.865961 0-35.216931-16.253968-35.216932-35.216931 0-19.865961 16.253968-35.216931 35.216932-35.216931h107.45679c19.865961 0 35.216931 16.253968 35.216931 35.216931 0 19.865961-16.253968 35.216931-35.216931 35.216931z" fill="#444444" p-id="2956"></path></svg>