<?xml version="1.0" standalone="no"?><!DOCTYPE svg PUBLIC "-//W3C//DTD SVG 1.1//EN" "http://www.w3.org/Graphics/SVG/1.1/DTD/svg11.dtd"><svg t="1596680949822" class="icon" viewBox="0 0 1024 1024" version="1.1" xmlns="http://www.w3.org/2000/svg" p-id="2283" xmlns:xlink="http://www.w3.org/1999/xlink" width="48" height="48"><defs><style type="text/css"></style></defs><path d="M375.01182256 563.50755438l-110.68644588 29.58944575 14.24677032 53.69936584c2.19181025 7.67133833 6.57543199 9.86314858 14.2467703 7.67133833l90.96014871-24.10991889c4.38362173-1.09590513 6.57543199-3.2877166 8.76724345-5.47952807 2.19181025-4.38362173 1.09590513-16.43858178-3.28771538-36.16487772l13.15086396 1.09590513c4.38362173 23.01401376 4.38362173 36.16487894 2.19181147 42.74031092-3.2877166 4.38362173-7.67133833 8.76724346-14.2467703 10.95905371l-98.63148826 26.30173036c-13.15086518 3.2877166-21.91810864-1.09590513-26.30172914-15.34267544L241.31136292 559.12393265l13.15086397-3.2877166 6.5754332 25.20582524 97.5355819-26.30173037-12.05496006-46.02802752-120.54959566 31.78125722-3.28771538-12.05495884 132.6045545-36.16487894 19.72629717 71.23385154zM426.51937814 465.97197247c14.24677031 6.57543199 27.39763549 13.15086518 38.35668921 19.72629717l-6.57543321 12.05496005c-9.86314858-7.67133833-23.01401376-14.24677031-38.35668919-20.8222035l6.57543319-10.95905372z m151.23494654 129.31683912c-6.57543199 2.19181025-17.5344869 4.38362173-32.87716233 8.76724346-12.05496005 3.2877166-21.91810864 4.38362173-29.58944575 4.38362173-7.67133833 0-15.34267543-3.2877166-23.01401376-7.67133833-3.2877166-2.19181025-6.57543199-3.2877166-8.76724346-2.19181026-4.38362173 1.09590513-9.86314858 10.95905371-15.34267543 30.68535088l-12.05496006-5.47952686c5.47952686-17.5344869 10.95905371-29.58944575 17.5344869-35.06897259l-14.2467703-53.69936586-25.20582524 6.57543199-3.28771538-12.05495885 38.35668921-9.86314857 17.5344869 66.85022981c2.19181025 1.09590513 4.38362173 2.19181025 5.47952686 3.28771661 5.47952686 3.2877166 12.05496005 6.57543199 17.53448691 7.67133711 6.57543199 1.09590513 15.34267543 0 26.30172914-3.2877154 13.15086518-3.2877166 25.20582402-6.57543199 37.26078408-9.86314857l24.10991889-6.57543321c8.76724346-2.19181025 15.34267543-4.38362173 18.63039203-5.47952685v14.24677031l-38.35668921 8.76724345z m-36.16487893-16.43858178l-6.57543199-12.05495883c8.76724346-2.19181025 16.43858178-3.2877166 23.01401377-5.47952686 5.47952686-1.09590513 6.57543199-4.38362173 5.47952685-8.76724345l-20.82220229-76.71337961-64.65841956 17.53448691-3.2877166-10.95905372 64.65841956-17.5344869-7.67133833-28.49354062 13.15086519-3.2877166 7.67133832 28.49354062 25.20582401-6.57543199 3.28771661 12.05495884-25.20582524 6.57543319 20.82220351 78.90518988c2.19181025 9.86314858-1.09590513 16.43858178-12.05496005 19.72629716l-23.01401376 6.57543198z m-39.45259433-73.4256618c14.24677031 10.95905371 26.30173036 19.72629716 33.97306747 27.39763428l-8.76724346 9.8631498c-8.76724346-9.86314858-20.82220229-18.63039203-33.97306746-28.49354184l8.76724345-8.76724224zM627.07006881 410.08079636l12.05495884-3.28771658 5.47952807 19.72629836L679.67352832 416.65622835l-5.47952686-19.72629716 12.05496005-3.2877166 5.47952686 19.72629838 10.95905371-3.28771661 3.2877166 12.05496007-10.95905493 3.28771538 19.72629838 75.61747448 12.05495884-3.2877166 3.2877166 12.05496006-84.38471672 23.01401254-3.2877166-12.05495883 13.15086518-3.2877166-19.72629716-75.61747328-10.95905493 3.28771661-3.28771538-12.05496006 10.95905371-3.28771659-5.47952686-19.72629718z m55.89117611 19.72629718l-35.06897382 8.76724345 4.38362173 17.5344869 35.06897382-9.86314857-4.38362173-16.43858178z m-2.19181147 104.1110151c-3.2877166 15.34267543-8.76724346 28.49354062-14.24677031 39.45259433l-12.05495884-4.38362173c6.57543199-10.95905371 12.05496005-24.10991889 15.34267544-37.26078408l10.95905371 2.19181148z m-20.82220229-48.219839l35.06897259-9.86314858-4.38362051-17.53448692-35.06897381 9.86314981 4.38362173 17.53448569z m7.67133832 28.49354061l35.0689726-9.86314858-4.38362173-17.53448569-35.0689726 9.86314859 4.38362173 17.53448568z m36.16487773 8.76724346c10.95905371 7.67133833 19.72629716 15.34267543 26.30173036 23.01401376 7.67133833-19.72629716 7.67133833-41.64440579 1.09590513-66.85022982l-21.91810741-83.28881159 59.17889148-15.34267544 37.26078408 139.17998771c3.2877166 10.95905371-1.09590513 17.5344869-10.95905372 20.82220229l-18.63039203 5.47952685-6.57543199-12.05495883c8.76724346-2.19181025 15.34267543-3.2877166 18.63039204-4.38362174 4.38362173-1.09590513 6.57543199-4.38362173 4.38362172-10.95905491l-9.86314979-35.06897261-35.0689726 8.76724346c3.2877166 24.10991889 2.19181025 46.02802753-5.47952686 64.65841956l-12.05496005-8.76724346v-1.09590513l-7.67133833 8.76724224c-6.57543199-7.67133833-16.43858178-16.43858178-27.39763549-25.20582402l8.76724346-7.67133832z m63.56251443-97.5355819l-7.67133832-30.68535088-33.97306747 8.76724345 8.76724345 30.68535087 32.87716234-8.76724344z m-30.68535208 20.82220351l7.67133832 29.58944574v2.19181147l33.97306747-8.76724345-8.76724224-31.78125722-32.87716355 8.76724346zM125.14538898 495.56141822c4.38362173-83.28881159 36.16487894-164.38581172 88.76833845-230.14013641 26.30173036-32.87716235 58.08298757-61.37070297 93.15196018-84.38471672 35.06897381-23.01401376 73.42566301-40.54850067 113.97416247-51.50755438s83.28881159-16.43858178 124.93321739-14.24677153c10.95905371 0 20.82220229 2.19181025 31.78125721 2.19181148 5.47952686 0 9.86314858 1.09590513 15.34267545 2.19181026l15.34267665 2.19181146c9.86314858 2.19181025 20.82220229 5.47952686 30.68535087 7.67133833l29.58944696 9.86314858c39.45259554 15.34267543 75.61747327 36.16487894 108.49463561 63.56251321l23.01401377 20.82220351 21.91810863 23.01401377 19.72629716 24.10991889 17.53448691 26.30173036-1.09590513 1.09590512C810.08627257 230.352308 742.14013762 178.84475361 664.33085289 150.351213c-76.71337962-28.49354062-162.19400146-33.97306747-242.19509646-13.15086518-39.45259554 10.95905371-77.80928475 27.39763549-112.87825856 49.31574412-35.06897381 21.91810864-65.75432468 49.31574412-92.05605505 81.09700012-52.60345951 64.65841956-85.48062186 144.65951456-92.05605384 227.94832616z" fill="#777777" p-id="2284"></path><path d="M666.52266314 350.90190367c-27.39763549-21.91810864-60.27479783-37.26078407-94.24786531-43.83621606-33.97306747-6.57543199-69.04204129-5.47952686-103.01510875 4.38362172-32.87716235 9.86314858-63.56251443 27.39763549-88.76833846 50.41164925-13.15086518 10.95905371-24.10991889 24.10991889-35.06897381 38.35668921-2.19181025 3.2877166-5.47952686 6.57543199-7.67133832 10.9590537l-6.57543199 10.95905494-6.57543198 10.9590537c-2.19181025 4.38362173-4.38362173 7.67133833-5.47952807 12.05496006H318.02474132c9.86314858-33.97306747 29.58944575-65.75432468 55.89117611-89.8642448 26.30173036-25.20582402 59.1788927-41.64440579 94.24786652-50.41164925 35.06897381-8.76724346 71.23385154-8.76724346 106.30282415-1.09590513 32.87716235 6.57543199 65.75432468 23.01401376 92.05605504 47.12393266zM191.99561879 743.23604275c24.10991889 32.87716235 53.69936586 63.56251443 86.57652821 88.76833846s69.04204129 44.9321224 107.39873047 60.27479783c38.35668921 15.34267543 78.90518987 25.20582402 120.54959567 27.39763549 41.64440579 2.19181025 83.28881159-2.19181025 122.74140593-14.24677032 39.45259554-12.05496005 76.71337962-29.58944575 111.78235222-51.50755438 33.97306747-23.01401376 64.65841956-50.41164925 90.96014992-82.19290646 52.60345951-63.56251443 85.48062186-142.4677043 94.2478653-224.66060956h1.09590634c-2.19181025 83.28881159-32.87716235 166.57762319-86.5765282 232.33194789S712.55069067 892.27917904 631.45369054 912.0054762c-40.54850067 9.86314858-82.19290646 14.24677031-123.83731227 12.05496006-41.64440579-2.19181025-83.28881159-8.76724346-122.74140592-23.01401376-81.09700013-29.58944575-150.13904142-86.57652819-192.87935356-157.81037975z" fill="#777777" p-id="2285"></path><path d="M384.87497235 691.72848837c14.24677031 9.86314858 29.58944575 17.5344869 46.02802752 25.20582402 15.34267543 6.57543199 31.78125722 12.05496005 49.31574291 16.43858179 16.43858178 4.38362173 33.97306747 7.67133833 51.50755438 7.67133711s35.06897381-3.2877166 51.50755438-8.76724224 31.78125722-13.15086518 47.12393387-20.82220351c15.34267543-8.76724346 28.49354062-18.63039203 41.6444058-30.68535209 25.20582402-23.01401376 46.02802753-50.41164925 61.37070297-82.19290526h1.09590512c-8.76724346 33.97306747-28.49354062 65.75432468-54.79527098 90.96014871-13.15086518 12.05496005-28.49354062 23.01401376-43.83621605 30.68535209-16.43858178 8.76724346-32.87716235 14.24677031-50.41164926 17.5344869-17.5344869 3.2877166-35.06897381 5.47952686-52.60346072 6.57543199-17.5344869 1.09590513-36.16487894 1.09590513-53.69936464-2.19181026-17.5344869-3.2877166-35.06897381-9.86314858-50.41164924-17.5344869-17.5344869-8.76724346-32.87716235-19.72629716-43.83621606-32.87716235z" fill="#777777" p-id="2286"></path><path d="M956.9375986 273.09261892c-76.71337962 24.10991889-153.42675801 46.02802753-231.23604275 65.7543259-39.45259554 9.86314858-77.80928475 18.63039203-117.26187907 28.49354062-38.35668921 9.86314858-77.80928475 20.82220229-116.16597394 31.78125722s-76.71337962 23.01401376-115.07006881 32.87716234c-38.35668921 10.95905371-76.71337962 21.91810864-116.16597394 31.78125722-77.80928475 19.72629716-155.61856948 39.45259554-233.42785302 56.98708124v-1.09590513c76.71337962-24.10991889 153.42675801-46.02802753 231.23604154-66.85023103 38.35668921-10.95905371 77.80928475-20.82220229 116.16597395-30.68535087 38.35668921-9.86314858 77.80928475-19.72629716 116.16597515-29.58944697 39.45259554-9.86314858 77.80928475-19.72629716 116.16597394-29.58944575 38.35668921-10.95905371 76.71337962-23.01401376 115.07006759-33.97306746 77.80928475-19.72629716 155.61856948-39.45259554 234.52375936-55.89117733z" fill="#777777" p-id="2287"></path><path d="M92.26822542 764.05824505l930.42369787-243.29100159-927.13598126 254.25005651z" fill="#777777" p-id="2288"></path></svg>