<?xml version="1.0" standalone="no"?><!DOCTYPE svg PUBLIC "-//W3C//DTD SVG 1.1//EN" "http://www.w3.org/Graphics/SVG/1.1/DTD/svg11.dtd"><svg t="1596596506634" class="icon" viewBox="0 0 1024 1024" version="1.1" xmlns="http://www.w3.org/2000/svg" p-id="3683" xmlns:xlink="http://www.w3.org/1999/xlink" width="48" height="48"><defs><style type="text/css"></style></defs><path d="M472.9 825.3c-47.5 0-93.6-9.3-137-27.7-41.9-17.7-79.6-43.1-111.9-75.4-32.3-32.3-57.7-70-75.4-111.9-18.4-43.4-27.7-89.5-27.7-137s9.3-93.6 27.7-137c17.7-41.9 43.1-79.6 75.4-111.9 32.3-32.3 70-57.7 111.9-75.4 43.4-18.4 89.5-27.7 137-27.7s93.6 9.3 137 27.7c41.9 17.7 79.6 43.1 111.9 75.4 32.3 32.3 57.7 70 75.4 111.9 18.4 43.4 27.7 89.5 27.7 137s-9.3 93.6-27.7 137c-17.7 41.9-43.1 79.6-75.4 111.9-32.3 32.3-70 57.7-111.9 75.4-43.3 18.4-89.4 27.7-137 27.7z m0-640c-158.8 0-288 129.2-288 288s129.2 288 288 288 288-129.2 288-288-129.2-288-288-288zM848.4 893.4l-90.5-90.5c-12.5-12.5-12.5-32.8 0-45.3s32.8-12.5 45.3 0l90.5 90.5c12.5 12.5 12.5 32.8 0 45.3s-32.8 12.5-45.3 0z" p-id="3684"></path></svg>