<?xml version="1.0" standalone="no"?><!DOCTYPE svg PUBLIC "-//W3C//DTD SVG 1.1//EN" "http://www.w3.org/Graphics/SVG/1.1/DTD/svg11.dtd"><svg t="1596793918749" class="icon" viewBox="0 0 1024 1024" version="1.1" xmlns="http://www.w3.org/2000/svg" p-id="1895" xmlns:xlink="http://www.w3.org/1999/xlink" width="48" height="48"><defs><style type="text/css"></style></defs><path d="M267.47610453 404.12181049c15.41117042-5.13705643 35.95939613-9.24670179 68.83655908-15.41116928 14.38375822-3.08223431 75.00102656-13.35634717 89.38478478-15.41117042 70.89138119-12.32893611 117.12489131-23.63046002 126.3715931-29.79492864 9.24670179-6.16446749 14.38375822-12.32893611 17.46599254-19.52081465 4.10964537-7.19187968 5.13705643-12.32893611 9.24670179-35.95939726 3.08223431-16.43858147 5.13705643-25.68528327 10.27411399-36.98680718 10.27411285-22.60304896 28.76751758-39.04163043 54.45279972-45.20609792 62.67209045-14.38375822 107.87818951 49.31574329 153.08428743 141.78276238 21.5756379 44.17868686 39.04163043 105.82336626 48.28833337 169.52286891 4.10964537-19.52081465 5.13705643-40.06904149 5.13705642-60.61726834 0-189.04368355-155.13911069-343.15538318-346.23761749-343.15538318S157.54309177 266.44869347 157.54309177 456.51978809c0 21.5756379 2.05482211 43.15127581 6.16446862 63.69950265 14.38375822-49.31574329 56.50762297-99.65889877 103.76854414-116.09748025z m121.23453668 311.30563242c29.79492864 27.74010539 71.91879339 44.17868686 117.1248913 44.17868687 47.26092117 0 89.38478592-17.46599253 119.17971343-47.26092117 5.13705643-4.10964537 9.24670179-1.02741106 6.16446748 5.13705642-22.60304896 52.3979776-70.89138119 88.35737373-126.3715931 88.35737486s-103.76854414-35.95939613-126.3715931-88.35737486c-2.05482211-5.13705643 4.10964537-7.19187968 10.27411399-2.05482212z m520.89754169-314.38786673c39.04163043 12.32893611 66.78173582 47.26092117 66.78173696 90.41219697 0 7.19187968-1.02741106 13.35634717-2.05482325 19.52081579 1.02741106 14.38375822 2.05482211 28.76751758 2.05482325 43.15127581 0 243.49648441-197.26297429 440.7594587-440.75945984 440.7594587h-30.8223397c-43.15127581 0-79.11067193-21.5756379-79.11067193-47.26092118s34.93198507-47.26092117 79.11067193-47.26092117c32.87716295 0 60.61726834 12.32893611 72.94620445 28.76751759 180.82439395-19.52081465 322.60715634-166.44063459 334.93609244-349.31985067-6.16446749 2.05482211-13.35634717 4.10964537-19.52081465 4.10964537-6.16446749 19.52081465-14.38375822 39.04163043-24.65787221 57.53503402-18.49340359 35.95939613-42.12386475 67.80914802-69.86397014 96.57666446-29.79492864 30.8223397-64.72691371 12.32893611-38.01421938-34.93198506 11.30152505-19.52081465 19.52081465-40.06904149 23.63046116-61.6446794 17.46599253-99.65889877-22.60304896-226.03049187-43.1512758-267.12694556-9.24670179-19.52081465-23.63046002-44.17868686-38.01421938-64.72691371v-1.02741105c1.02741106-5.13705643 1.02741106-7.19187968 0-5.13705643-1.02741106 1.02741106-1.02741106 3.08223431-2.05482326 4.10964537-17.46599253-24.65787221-33.90457401-43.15127581-43.15127466-41.09645256-17.46599253 4.10964537-15.41117042 28.76751758-22.6030501 57.53503403 0 0-1.02741106 0-1.02741106-1.02741105-2.05482211-1.02741106-3.08223431-2.05482211-3.08223431-2.05482326l4.10964537 4.10964537c-6.16446749 22.60304896-17.46599253 49.31574329-48.28833223 69.86397013-46.23351011 30.8223397-250.68836409 52.3979776-298.97669632 68.83655908-30.8223397 10.27411285-59.58985728 50.34315549-64.72691257 79.11067193-8.21929074 45.20609792 3.08223431 128.42641635 22.60304896 163.35840142 3.08223431 6.16446749 7.19187968 12.32893611 11.30152391 17.46599253 30.8223397 45.20609792 2.05482211 59.58985728-26.71269433 33.90457288-35.95939613-31.84975075-65.75432477-69.86397013-88.35737372-113.01524594-10.27411285-19.52081465-18.49340359-39.04163043-25.68528327-60.6172672-47.26092117-5.13705643-84.24772835-45.20609792-84.24772836-93.49443129 0-42.12386475 27.74010539-78.08326087 66.78173583-90.41219698 27.74010539-197.26297429 199.31779755-349.31985067 405.82747363-349.31985067s378.08736825 152.05687637 404.80006258 350.34726173z m0 0" p-id="1896"></path></svg>