<?xml version="1.0" standalone="no"?><!DOCTYPE svg PUBLIC "-//W3C//DTD SVG 1.1//EN" "http://www.w3.org/Graphics/SVG/1.1/DTD/svg11.dtd"><svg t="1596596976575" class="icon" viewBox="0 0 1024 1024" version="1.1" xmlns="http://www.w3.org/2000/svg" p-id="2437" xmlns:xlink="http://www.w3.org/1999/xlink" width="48" height="48"><defs><style type="text/css"></style></defs><path d="M834.37037 465.044092c-2.708995-9.029982-10.835979-15.35097-19.865961-16.253969L605.008818 415.379189 512 215.816578c-3.611993-9.029982-12.641975-14.447972-22.574956-14.447971s-18.059965 5.417989-22.574956 14.447971L372.938272 415.379189l-209.495591 31.604938c-9.029982 1.805996-17.156966 8.126984-19.865961 16.253968-2.708995 9.029982-0.902998 18.962963 5.417989 25.283951l151.703704 156.218695-36.11993 220.331569c-1.805996 9.029982 2.708995 18.962963 9.932981 24.380953 8.126984 5.417989 18.059965 6.320988 26.186949 1.805996L487.619048 788.31746l186.920635 103.844797c3.611993 1.805996 8.126984 2.708995 11.738977 2.708995h0.902998c13.544974 0 24.380952-10.835979 24.380952-24.380952 0-2.708995-0.902998-6.320988-1.805996-9.029983l-34.313933-215.816578 152.606702-156.218695c7.223986-6.320988 9.029982-16.253968 6.320987-24.380952z m0 0" p-id="2438"></path></svg>