<?xml version="1.0" standalone="no"?><!DOCTYPE svg PUBLIC "-//W3C//DTD SVG 1.1//EN" "http://www.w3.org/Graphics/SVG/1.1/DTD/svg11.dtd"><svg t="1596680945404" class="icon" viewBox="0 0 1024 1024" version="1.1" xmlns="http://www.w3.org/2000/svg" p-id="2152" xmlns:xlink="http://www.w3.org/1999/xlink" width="48" height="48"><defs><style type="text/css"></style></defs><path d="M136.37814553 472.54740446c4.38362173-83.28881159 36.16487894-164.38581172 88.76833845-230.14013642 26.30173036-32.87716235 58.08298757-61.37070297 93.15196017-84.38471671 35.06897381-23.01401376 73.42566301-40.54850067 113.97416247-51.50755439s83.28881159-16.43858178 124.9332174-14.24677152c10.95905371 0 20.82220229 2.19181025 31.78125722 2.19181148 5.47952686 0 9.86314858 1.09590513 15.34267665 2.19181025l15.34267543 2.19181146c9.86314858 2.19181025 20.82220229 5.47952686 30.68535209 7.67133833l29.58944574 9.86314859c39.45259554 15.34267543 75.61747327 36.16487894 108.49463562 63.56251321l23.01401376 20.82220351 21.91810864 23.01401376 19.72629716 24.10991889 17.53448691 26.30173036-1.09590513 1.09590513C821.3190291 208.43420058 753.37289418 155.83073985 675.56360943 128.43310436c-76.71337962-28.49354062-162.19400146-33.97306747-242.19509646-13.15086518-39.45259554 10.95905371-77.80928475 27.39763549-112.87825857 49.31574413-35.06897381 21.91810864-65.75432468 49.31574412-92.05605382 81.09700134-52.60345951 63.56251443-85.48062186 143.56360943-92.05605506 226.85241981z" fill="#777777" p-id="2153"></path><path d="M677.75541968 327.8878899c-27.39763549-21.91810864-60.27479783-37.26078407-94.2478653-43.83621605-33.97306747-6.57543199-69.04204129-5.47952686-103.01510876 4.38362172-32.87716235 9.86314858-63.56251443 27.39763549-88.76833845 50.41164925-13.15086518 10.95905371-24.10991889 24.10991889-35.06897383 38.35668921-2.19181025 3.2877166-5.47952686 6.57543199-7.67133709 10.9590537l-6.57543321 10.95905493-6.57543199 10.9590537c-2.19181025 4.38362173-4.38362173 7.67133833-5.47952685 12.05496007h-1.09590633c9.86314858-33.97306747 29.58944575-65.75432468 55.8911761-89.8642448 26.30173036-25.20582402 59.1788927-41.64440579 94.24786652-50.41164925 35.06897381-8.76724346 71.23385154-8.76724346 106.30282536-1.09590513 32.87716235 6.57543199 65.75432468 23.01401376 92.05605383 47.12393265zM203.22837535 719.12612386c24.10991889 32.87716235 53.69936586 63.56251443 86.57652819 88.76833845s69.04204129 44.9321224 107.39873048 60.27479784c38.35668921 15.34267543 78.90518987 25.20582402 120.54959566 27.39763549 41.64440579 2.19181025 83.28881159-2.19181025 122.74140594-14.24677032 39.45259554-12.05496005 76.71337962-29.58944575 111.78235342-51.50755438 33.97306747-23.01401376 64.65841956-50.41164925 90.96014871-82.19290646 52.60345951-63.56251443 85.48062186-142.4677043 94.24786531-224.66061077h1.09590634c-2.19181025 83.28881159-32.87716235 166.57762319-86.5765282 232.33194788S723.78344721 868.16926015 642.68644707 887.89555731c-40.54850067 9.86314858-82.19290646 14.24677031-123.83731226 12.05496006-41.64440579-2.19181025-83.28881159-8.76724346-122.74140591-23.01401376-81.09700013-28.49354062-150.13904142-85.48062186-192.87935355-157.81037975z" fill="#777777" p-id="2154"></path><path d="M396.1077289 667.61856948c14.24677031 9.86314858 29.58944575 17.5344869 46.02802753 25.20582402 15.34267543 6.57543199 31.78125722 12.05496005 49.31574289 16.43858179 16.43858178 4.38362173 33.97306747 7.67133833 51.50755439 7.6713371s35.06897381-3.2877166 51.50755439-8.76724345 31.78125722-13.15086518 47.12393386-20.82220229c15.34267543-8.76724346 28.49354062-18.63039203 41.64440579-30.68535209 25.20582402-23.01401376 46.02802753-50.41164925 61.37070297-82.19290646h1.09590513c-8.76724346 33.97306747-28.49354062 65.75432468-54.795271 90.96014991-13.15086518 12.05496005-28.49354062 23.01401376-43.83621604 30.68535209-16.43858178 8.76724346-32.87716235 14.24677031-50.41164926 17.53448569-17.5344869 3.2877166-35.06897381 5.47952686-52.60345951 6.5754332-17.5344869 1.09590513-36.16487894 1.09590513-53.69936583-2.19181146-17.5344869-3.2877166-35.06897381-9.86314858-50.41164927-17.5344857-17.5344869-8.76724346-31.78125722-18.63039203-43.83621604-32.87716235zM963.78673342 251.1745115c-75.61747327 24.10991889-152.33085289 46.02802753-229.04423129 65.75432469-38.35668921 9.86314858-77.80928475 18.63039203-116.16597394 28.49354062-38.35668921 9.86314858-76.71337962 20.82220229-115.07006881 31.78125722l-115.07006882 32.87716233c-38.35668921 10.95905371-76.71337962 20.82220229-115.07006881 31.78125722-76.71337962 19.72629716-153.42675801 39.45259554-231.23604274 56.98708124v-1.09590513c76.71337962-25.20582402 153.42675801-47.12393265 230.14013761-67.94613615 38.35668921-10.95905371 76.71337962-19.72629716 115.07006881-30.68535088 38.35668921-9.86314858 76.71337962-19.72629716 116.16597395-28.49354062 38.35668921-9.86314858 76.71337962-18.63039203 115.07006881-29.58944696 38.35668921-10.95905371 76.71337962-23.01401376 113.97416247-33.97306747 76.71337962-20.82220229 153.42675801-40.54850067 231.23604276-55.89117611z" fill="#777777" p-id="2155"></path><path d="M107.88460491 739.94832615l922.75235954-242.19509646-919.46464417 252.05824505zM387.34048543 540.49354062L276.65403836 570.08298757l14.24677031 53.69936464c2.19181025 7.67133833 6.57543199 9.86314858 14.24677031 7.67133833l90.96014992-24.10991889c4.38362173-1.09590513 6.57543199-3.2877166 8.76724345-5.47952808 2.19181025-4.38362173 1.09590513-16.43858178-3.2877166-36.16487771l13.15086518 1.09590512c4.38362173 23.01401376 4.38362173 36.16487894 2.19181026 42.74031092-3.2877166 4.38362173-7.67133833 8.76724346-14.24677031 10.95905372l-98.63148704 26.30173035c-13.15086518 3.2877166-21.91810864-1.09590513-26.30173036-15.34267543L252.54411946 537.20582402l13.15086519-3.28771538 6.57543198 25.20582401 97.53558191-26.30173036-12.05496005-46.02802631-120.54959568 31.78125601-2.19181024-14.24677032 132.60455571-36.16487772 19.72629715 72.32975667zM461.86205358 502.13685142c-3.2877166 9.86314858-7.67133833 19.72629716-12.05496005 28.49354061l-7.6713371-12.05496004c13.15086518-26.30173036 19.72629716-54.79527098 19.72629715-85.48062186l13.15086518 2.19181025c-1.09590513 15.34267543-3.2877166 29.58944575-6.57543319 43.83621727l31.78125721 120.54959567-13.15086519 3.2877166-25.20582401-100.8232985z m20.8222023-54.79527098l47.12393387-12.05496006L524.32866166 416.65622835l13.1508652-3.28771538 4.38362172 18.63039203 49.31574411-13.15086518 3.28771541 12.05496005-49.31574292 13.15086397 4.38362171 16.43858178 41.6444058-10.95905372 13.1508652 50.41164805-42.74031214 10.95905492c3.2877166 16.43858178 3.2877166 29.58944575 1.09590634 39.45259434 20.82220229 5.47952686 42.74031092 5.47952686 66.85022981 0v13.15086517c-25.20582402 5.47952686-49.31574412 4.38362173-71.23385154-1.09590513-6.57543199 12.05496005-20.82220229 23.01401376-40.54850068 31.78125721l-8.76724344-9.86314857c17.5344869-6.57543199 29.58944575-15.34267543 36.16487894-25.20582524-12.05496005-4.38362173-24.10991889-10.95905371-35.06897382-19.72629716l7.67133832-9.86314859c9.86314858 7.67133833 20.82220229 13.15086518 31.78125721 17.53448691 2.19181025-8.76724346 1.09590513-19.72629716-1.09590512-32.87716356l-39.45259553 10.95905493-13.15086518-50.41164925 40.54850067-10.95905371-4.38362173-16.43858178-46.02802753 13.15086518-3.28771659-13.15086518z m64.65841955 55.8911761v-2.19181025l-6.57543197-25.20582523-28.49354063 7.67133832 7.67133712 27.39763549 27.39763548-7.67133833z m42.74031214-10.9590537l-7.67133832-27.39763549-29.58944696 7.67133711 6.57543319 25.20582523v2.19181026l30.68535209-7.67133711zM682.13904142 487.89008111c4.38362173 23.01401376 2.19181025 43.83621605-4.38362174 62.4666081l-12.05495883-6.57543199c7.67133833-18.63039203 7.67133833-40.54850067 1.09590512-65.75432469l-23.01401377-85.48062307L776.38690794 357.47733686l36.16487893 133.70046085c3.2877166 12.05496005-1.09590513 20.82220229-14.24677152 24.10991889l-20.82220228 5.47952686-6.57543199-12.05496006c9.86314858-2.19181025 16.43858178-3.2877166 19.72629716-4.38362173 6.57543199-2.19181025 8.76724346-6.57543199 6.57543198-14.24677031l-8.76724345-30.68535087-47.12393266 12.05495884 14.24677032 52.60346072-13.1508652 3.28771538-14.24677029-52.6034595-46.02802752 13.15086518z m23.01401375-98.63148703l-44.93212118 12.05495884 8.76724344 30.68535208 44.9321212-12.05496005-8.76724346-30.68535087z m-33.97306747 54.79526976l8.76724345 30.68535209 44.9321224-12.05496005-8.76724346-30.68535088-44.93212239 12.05495884z m104.11101389-40.54849946l-8.76724224-30.68535208-48.219839 13.15086517 8.76724345 30.68535088 48.21983779-13.15086397z m10.95905492 43.83621606l-8.76724344-30.68535209-48.21983778 13.15086519 8.76724224 30.68535208 48.21983898-13.15086518z" fill="#777777" p-id="2156"></path></svg>