<?xml version="1.0" standalone="no"?><!DOCTYPE svg PUBLIC "-//W3C//DTD SVG 1.1//EN" "http://www.w3.org/Graphics/SVG/1.1/DTD/svg11.dtd"><svg class="icon" viewBox="0 0 1024 1024" version="1.1" xmlns="http://www.w3.org/2000/svg"><path d="M793.73545 576.112875c35.216931-53.276896 55.985891-117.389771 55.98589-186.920635 0-186.920635-151.703704-338.624339-338.624338-338.624339-186.017637 0.902998-337.72134 152.606702-337.721341 339.527337 0 68.627866 20.768959 132.740741 55.985891 186.920635-87.590829 14.447972-155.315697 92.10582-155.315697 184.21164v21.671958c0 103.844797 84.881834 187.823633 187.823634 187.823633h500.261022c103.844797 0 187.823633-84.881834 187.823634-187.823633v-21.671958c0-92.10582-67.724868-169.763668-156.218695-185.114638z m-281.73545 18.059965c-80.366843 0-146.285714-65.918871-146.285714-146.285715 0-15.35097 11.738977-27.089947 27.089947-27.089947s27.089947 11.738977 27.089947 27.089947c0 50.567901 41.537919 92.10582 92.10582 92.10582s92.10582-41.537919 92.10582-92.10582c0-15.35097 11.738977-27.089947 27.089947-27.089947s27.089947 11.738977 27.089947 27.089947c0 80.366843-65.918871 146.285714-146.285714 146.285715z"  /></svg>