<?xml version="1.0" standalone="no"?><!DOCTYPE svg PUBLIC "-//W3C//DTD SVG 1.1//EN" "http://www.w3.org/Graphics/SVG/1.1/DTD/svg11.dtd"><svg class="icon" viewBox="0 0 1024 1024" version="1.1" xmlns="http://www.w3.org/2000/svg"><path d="M512 106.553792c156.218695 0 284.444444 127.322751 284.444444 284.444444 0 55.985891-16.253968 110.165785-46.955908 156.218695-9.932981 15.35097-11.738977 34.313933-4.514991 51.4709 7.223986 17.156966 22.574956 28.895944 40.634921 31.604938 63.209877 10.835979 111.068783 67.724868 111.068783 131.837742v21.671958c0 74.045855-60.500882 133.643739-133.643739 133.643739H261.869489c-74.045855 0-133.643739-60.500882-133.643739-133.643739v-21.671958c0-64.112875 47.858907-121.001764 111.068783-131.837742 18.059965-2.708995 33.410935-15.35097 40.63492-31.604938 7.223986-17.156966 5.417989-36.119929-4.514991-51.4709-30.70194-46.955908-46.955908-100.232804-46.955908-156.218695-0.902998-157.121693 127.322751-284.444444 283.541446-284.444444m0-54.179894C325.079365 52.373898 173.375661 203.174603 173.375661 390.095238c0 68.627866 20.768959 132.740741 55.985891 186.920635-87.590829 15.35097-155.315697 92.10582-155.315697 185.114638v21.671958c0 103.844797 84.881834 187.823633 187.823634 187.823633h500.261022c103.844797 0 187.823633-84.881834 187.823634-187.823633v-21.671958c0-93.008818-67.724868-169.763668-156.218695-185.114638 35.216931-53.276896 55.985891-117.389771 55.98589-186.920635 0.902998-186.920635-150.800705-337.72134-337.72134-337.72134z"  /><path d="M512 594.17284c-80.366843 0-146.285714-65.918871-146.285714-146.285715 0-15.35097 11.738977-27.089947 27.089947-27.089947s27.089947 11.738977 27.089947 27.089947c0 50.567901 41.537919 92.10582 92.10582 92.10582s92.10582-41.537919 92.10582-92.10582c0-15.35097 11.738977-27.089947 27.089947-27.089947s27.089947 11.738977 27.089947 27.089947c0 81.269841-65.918871 146.285714-146.285714 146.285715z"  /></svg>