<?xml version="1.0" standalone="no"?><!DOCTYPE svg PUBLIC "-//W3C//DTD SVG 1.1//EN" "http://www.w3.org/Graphics/SVG/1.1/DTD/svg11.dtd"><svg t="1596610309703" class="icon" viewBox="0 0 1024 1024" version="1.1" xmlns="http://www.w3.org/2000/svg" p-id="2563" xmlns:xlink="http://www.w3.org/1999/xlink" width="48" height="48"><defs><style type="text/css"></style></defs><path d="M809.989418 415.379189L688.084656 262.772487c-11.738977-15.35097-32.507937-25.283951-52.373898-25.283951H389.19224c-19.865961 0-38.828924 9.029982-52.373898 25.283951L214.91358 415.379189c-20.768959 25.283951-18.962963 63.209877 3.611993 87.590829l247.421517 261.869488 3.611993 3.611993c11.738977 10.835979 28.895944 18.059965 45.149912 18.059965h1.805996c18.059965-0.902998 34.313933-8.126984 46.955908-20.76896l242.003528-260.96649c23.477954-26.186949 24.380952-64.112875 4.514991-89.396825z m-147.188713 59.597883L547.216931 600.493827c-18.059965 18.059965-45.149912 18.962963-63.209876 1.805997l-1.805997-1.805997-121.001763-126.419753c-8.126984-9.029982-8.126984-23.477954 0.902998-30.70194 9.932981-9.029982 23.477954-8.126984 32.507936 0.902998l119.195767 125.516755 115.583775-123.710758c9.029982-9.029982 22.574956-9.932981 32.507936-1.805997 8.126984 7.223986 8.126984 21.671958 0.902998 30.70194z m0 0" p-id="2564"></path></svg>