<?xml version="1.0" standalone="no"?><!DOCTYPE svg PUBLIC "-//W3C//DTD SVG 1.1//EN" "http://www.w3.org/Graphics/SVG/1.1/DTD/svg11.dtd"><svg class="icon" width="48px" height="48.00px" viewBox="0 0 1024 1024" version="1.1" xmlns="http://www.w3.org/2000/svg"><path d="M510.33852326 508.36247636m-500.00562691 0a500.00562829 500.00562829 0 1 0 1000.01125519 0 500.00562829 500.00562829 0 1 0-1000.01125519 0Z" fill="#4C4845" /><path d="M812.08755672 379.93210355l-103.49243724 74.81380942c-13.71586565 9.97517478-33.66621383 6.23448389-42.3944921-7.48138177L535.27646019 262.72380065c-12.46896778-17.45655516-37.40690471-17.45655516-49.87587248 0L356.97021353 447.2645312c-9.97517478 13.71586565-28.67862644 17.45655516-42.39449211 7.48138177l-104.73933373-74.81380942c-22.44414255-16.20965867-52.36966688 3.74069089-47.38207949 29.92552293l59.85104864 332.92145291c2.49379299 14.96276217 14.96276217 24.93793694 29.92552294 24.93793694h523.69666873c14.96276217 0 27.43172994-11.22207127 29.92552294-26.18483343l54.86346125-332.92145291c3.74069089-26.18483343-26.18483343-44.88828649-48.62897598-28.67862644zM510.33852326 646.76802392c-37.40690471 0-68.57932554-29.92552432-68.57932554-68.57932553 0-37.40690471 29.92552432-68.57932554 68.57932554-68.57932554 37.40690471 0 68.57932554 29.92552432 68.57932553 68.57932554 0 37.40690471-29.92552432 68.57932554-68.57932553 68.57932553z m0 0" fill="#EBCEA0" /></svg>