<?xml version="1.0" standalone="no"?><!DOCTYPE svg PUBLIC "-//W3C//DTD SVG 1.1//EN" "http://www.w3.org/Graphics/SVG/1.1/DTD/svg11.dtd"><svg class="icon" width="48px" height="48.00px" viewBox="0 0 1024 1024" version="1.1" xmlns="http://www.w3.org/2000/svg"><path d="M512 512m-500.00562829 0a500.00562829 500.00562829 0 1 0 1000.01125658 0 500.00562829 500.00562829 0 1 0-1000.01125658 0Z" fill="#4C4845" /><path d="M720.2317696 241.42338874l-194.51590395 9.97517477c-26.18483343 1.2468965-49.87587248 12.46896778-68.57932552 29.92552295L200.27579316 536.93793694c-11.22207127 11.22207127-17.45655516 26.18483343-17.45655517 41.14759558 0 14.96276217 6.23448389 29.92552432 17.45655517 41.14759423l204.49108009 204.49108009c22.44414255 22.44414255 59.85104726 22.44414255 83.5420877 0l78.55449892-78.5545003 178.30624667-178.30624667c18.70345305-18.70345305 28.67862644-42.3944921 29.92552432-68.57932552l9.97517478-194.51590395c1.2468965-17.45655516-4.98758739-33.66621383-17.45655654-46.135183-13.71586565-11.22207127-29.92552432-17.45655516-47.3820795-16.20965866z m-91.02346807 255.61384909c-19.95034954 19.95034954-51.12277038 26.18483343-77.30760244 14.96276217s-43.64138861-37.40690471-43.64138998-66.08553252 17.45655516-54.86345987 43.64138998-66.08553116c26.18483343-11.22207127 57.35725426-4.98758739 77.30760244 14.96276215 27.43172994 28.67862644 27.43172994 73.56691292 0 102.24553936z m0 0" fill="#EBCEA0" /></svg>