<?xml version="1.0" standalone="no"?><!DOCTYPE svg PUBLIC "-//W3C//DTD SVG 1.1//EN" "http://www.w3.org/Graphics/SVG/1.1/DTD/svg11.dtd"><svg t="1600596301364" class="icon" viewBox="0 0 1448 1024" version="1.1" xmlns="http://www.w3.org/2000/svg" p-id="1930" xmlns:xlink="http://www.w3.org/1999/xlink" width="67.875" height="48"><defs><style type="text/css"></style></defs><path d="M46.00957682 513.7795773c0 245.58163492 130.97687224 472.41839239 343.57701263 595.32784825 212.60014041 122.67217907 474.79116166 122.67217907 687.39130209 0s343.57701265-349.74621333 343.57701264-595.32784825c0-379.64310818-307.7481939-687.39130207-687.39130208-687.39130208C353.75777071-173.37444799 46.00957682 134.13646913 46.00957682 513.7795773z m0 0" fill="#4C4845" p-id="1931"></path><path d="M1012.1394448 277.00091561c-94.65768109-2.5309539-205.76656473-101.49125706-328.26474016-103.51602047-58.4650393-0.25309525-116.93007715 6.58048072-173.87654353 20.24763266l133.8874687 351.80261393c107.31245205-65.80480576 256.13255039-32.6493069 363.44500245-84.28077026 115.91769619-57.19956163 143.75819054-215.63728507 143.75819053-215.63728508-42.26693201 22.77858656-90.60815574 33.91478459-138.94937799 31.38382922z" fill="#EBCEA0" p-id="1932"></path><path d="M706.65329118 904.93061734c-20.5007279 0-39.98907335-12.65477096-47.83503175-32.90240361L407.49452161 211.70230181c-10.1238156-26.32192142 3.29023963-55.93408394 29.61216251-66.05790102 26.32192142-10.1238156 55.93408394 3.29023963 66.05790102 29.61216254l251.32373783 660.32591189c10.1238156 26.32192142-3.29023963 55.93408394-29.61216255 66.05790102-6.07429024 2.02476341-12.148579 3.29023963-18.22286924 3.2902411zM936.97010917 528.0715582c-92.37982244 0-167.04296759 74.91624038-167.04296758 167.04296758s74.91624038 167.04296759 167.04296758 167.04296758c92.37982244 0 167.04296759-74.91624038 167.04296758-167.04296758s-74.91624038-167.04296759-167.04296758-167.04296758z m63.27385187 188.30298122c11.64238851 0 21.26001363 9.36452987 21.26001362 21.26001509 0 11.64238851-9.36452987 21.26001363-21.26001362 21.26001363h-42.26693201v18.22286923c0 13.41405669-9.6176251 24.04406425-21.2600151 24.04406279-11.64238851 0-21.00691838-10.88310279-21.00691838-24.29715802v-17.969774h-42.26693202c-7.59286169 0-14.42643767-4.04952683-18.22286924-10.63000754s-3.79643158-14.6795329 0-21.26001362c3.79643158-6.58048072 10.88310279-10.63000756 18.22286924-10.63000756H915.96319079V695.11452578h-42.52002726c-7.59286169 0-14.42643767-4.04952683-18.22286924-10.63000755s-3.79643158-14.6795329 0-21.26001361c3.79643158-6.58048072 10.88310279-10.63000756 18.22286924-10.63000756h39.22978762L881.03602525 626.77876612c-8.60524414-7.59286169-9.6176251-20.5007279-2.27785868-29.35906728s20.24763265-10.1238156 29.35906728-3.03714438l32.90240216 27.33430385 32.39621165-27.33430385c5.82119499-4.80881256 13.66715194-6.32738549 20.75382314-3.79643158 7.08667122 2.5309539 12.40167424 8.85833938 13.66715192 16.19810583 1.26547769 7.33976645-1.51857293 14.93262963-7.33976643 19.99453741l-31.13073399 26.06882766h30.87763874c11.64238851 0 21.26001363 9.36452987 21.26001362 21.26001361 0 11.64238851-9.36452987 21.26001363-21.26001362 21.26001364h-42.01383678v21.26001363h42.01383678z" fill="#EBCEA0" p-id="1933"></path></svg>